<mxfile host="app.diagrams.net" modified="2021-10-22T03:29:33.365Z" agent="5.0 (Macintosh; Intel Mac OS X 10_15_7) AppleWebKit/605.1.15 (KHTML, like Gecko) Version/15.0 Safari/605.1.15" etag="Ea2zdsDF1HkxoOWy7LP6" version="15.5.7" type="github">
  <diagram id="eRlTtgnvfNgHXYzSSGRN" name="Page-1">
    <mxGraphModel dx="902" dy="612" grid="1" gridSize="10" guides="1" tooltips="1" connect="1" arrows="1" fold="1" page="1" pageScale="1" pageWidth="827" pageHeight="1169" math="0" shadow="0">
      <root>
        <mxCell id="0" />
        <mxCell id="1" parent="0" />
        <mxCell id="xdHxF5tMRN6LgjRY5XKk-1" value="" style="rounded=0;whiteSpace=wrap;html=1;" vertex="1" parent="1">
          <mxGeometry x="60" y="80" width="660" height="470" as="geometry" />
        </mxCell>
        <mxCell id="xdHxF5tMRN6LgjRY5XKk-2" value="&lt;font style=&quot;font-size: 18px&quot;&gt;&lt;b&gt;提交作业&lt;/b&gt;&lt;/font&gt;" style="rounded=0;whiteSpace=wrap;html=1;strokeColor=none;" vertex="1" parent="1">
          <mxGeometry x="70" y="90" width="80" height="30" as="geometry" />
        </mxCell>
        <mxCell id="xdHxF5tMRN6LgjRY5XKk-23" value="&lt;font color=&quot;#ffffff&quot;&gt;提交&lt;/font&gt;" style="rounded=1;whiteSpace=wrap;html=1;fontSize=14;fontColor=#000000;strokeColor=#B3B3B3;fillColor=#00994D;" vertex="1" parent="1">
          <mxGeometry x="267.5" y="500" width="85" height="35" as="geometry" />
        </mxCell>
        <mxCell id="xdHxF5tMRN6LgjRY5XKk-24" value="&lt;span&gt;取消&lt;/span&gt;" style="rounded=1;whiteSpace=wrap;html=1;fontSize=14;fontColor=#000000;strokeColor=#B3B3B3;fillColor=#FFFFFF;" vertex="1" parent="1">
          <mxGeometry x="397.5" y="500" width="85" height="35" as="geometry" />
        </mxCell>
        <mxCell id="xdHxF5tMRN6LgjRY5XKk-28" value="" style="rounded=0;whiteSpace=wrap;html=1;strokeColor=#009900;" vertex="1" parent="1">
          <mxGeometry x="80" y="170" width="590" height="170" as="geometry" />
        </mxCell>
        <mxCell id="xdHxF5tMRN6LgjRY5XKk-29" value="&lt;font style=&quot;font-size: 14px&quot;&gt;脚本编写&lt;/font&gt;" style="rounded=0;whiteSpace=wrap;html=1;strokeColor=none;" vertex="1" parent="1">
          <mxGeometry x="70" y="139" width="80" height="30" as="geometry" />
        </mxCell>
        <mxCell id="xdHxF5tMRN6LgjRY5XKk-30" value="&lt;span style=&quot;font-size: 14px&quot;&gt;选择jar包&lt;/span&gt;" style="rounded=0;whiteSpace=wrap;html=1;strokeColor=none;" vertex="1" parent="1">
          <mxGeometry x="80" y="370" width="80" height="30" as="geometry" />
        </mxCell>
        <mxCell id="xdHxF5tMRN6LgjRY5XKk-31" value="&lt;span style=&quot;font-size: 14px&quot;&gt;选择配置文件&lt;/span&gt;" style="rounded=0;whiteSpace=wrap;html=1;strokeColor=none;" vertex="1" parent="1">
          <mxGeometry x="80" y="420.5" width="90" height="30" as="geometry" />
        </mxCell>
        <mxCell id="xdHxF5tMRN6LgjRY5XKk-32" value="" style="rounded=0;whiteSpace=wrap;html=1;fontSize=14;strokeColor=#CCCCCC;" vertex="1" parent="1">
          <mxGeometry x="200" y="370" width="120" height="25" as="geometry" />
        </mxCell>
        <mxCell id="xdHxF5tMRN6LgjRY5XKk-33" value="" style="triangle;whiteSpace=wrap;html=1;fontSize=14;strokeColor=#E6E6E6;direction=south;fillColor=#009900;" vertex="1" parent="1">
          <mxGeometry x="300" y="379" width="10" height="10" as="geometry" />
        </mxCell>
        <mxCell id="xdHxF5tMRN6LgjRY5XKk-35" value="" style="rounded=0;whiteSpace=wrap;html=1;fontSize=14;strokeColor=#CCCCCC;" vertex="1" parent="1">
          <mxGeometry x="200" y="423" width="120" height="25" as="geometry" />
        </mxCell>
        <mxCell id="xdHxF5tMRN6LgjRY5XKk-36" value="" style="triangle;whiteSpace=wrap;html=1;fontSize=14;strokeColor=#E6E6E6;direction=south;fillColor=#009900;" vertex="1" parent="1">
          <mxGeometry x="300" y="432" width="10" height="10" as="geometry" />
        </mxCell>
      </root>
    </mxGraphModel>
  </diagram>
</mxfile>
